<svg xmlns="http://www.w3.org/2000/svg" viewBox="0 0 88 92" fill="none">
  <defs>
    <linearGradient id="ig1" x1="0%" y1="0%" x2="100%" y2="100%">
      <stop offset="0%" stop-color="#38bdf8"/>
      <stop offset="55%" stop-color="#6366f1"/>
      <stop offset="100%" stop-color="#7c3aed"/>
    </linearGradient>
    <linearGradient id="ig2" x1="0%" y1="0%" x2="100%" y2="100%">
      <stop offset="0%" stop-color="#60a5fa"/>
      <stop offset="100%" stop-color="#818cf8"/>
    </linearGradient>
  </defs>

  <!-- Vertical stem -->
  <rect x="4" y="2" width="18" height="88" rx="9" fill="url(#ig1)"/>

  <!-- D bowl outer -->
  <path d="M13 2 H38 C64 2 82 20 82 46 C82 72 64 90 38 90 H13 Z" fill="url(#ig1)"/>

  <!-- D bowl inner cutout -->
  <path d="M26 18 H38 C54 18 66 30 66 46 C66 62 54 74 38 74 H26 Z" fill="white"/>

  <!-- Chat bubble tail -->
  <path d="M4 76 L4 90 L20 82" fill="url(#ig1)"/>

  <!-- Left person -->
  <circle cx="37" cy="36" r="7" fill="url(#ig2)" opacity="0.85"/>
  <path d="M27 62 C27 53 32 49 37 49 C42 49 47 53 47 62 Z" fill="url(#ig2)" opacity="0.85"/>

  <!-- Center person (larger) -->
  <circle cx="52" cy="31" r="9" fill="url(#ig1)"/>
  <path d="M40 62 C40 51 45 46 52 46 C59 46 64 51 64 62 Z" fill="url(#ig1)"/>

  <!-- Right person -->
  <circle cx="67" cy="36" r="7" fill="#818cf8" opacity="0.85"/>
  <path d="M57 62 C57 53 62 49 67 49 C72 49 77 53 77 62 Z" fill="#818cf8" opacity="0.85"/>
</svg>
